<svg id="Layer_2" data-name="Layer 2" xmlns="http://www.w3.org/2000/svg" viewBox="0 0 128 100"><defs><style>.cls-2{fill:#231f20;}</style></defs><title>black-bambu</title><path class="cls-2" d="M112,97.65H16a12.82,12.82,0,0,1-9.63-4.49A16,16,0,0,1,2.39,82.52v-65A16,16,0,0,1,6.34,6.84,12.82,12.82,0,0,1,16,2.35H112a12.82,12.82,0,0,1,9.63,4.49,16,16,0,0,1,3.94,10.63v65a15.94,15.94,0,0,1-3.94,10.63A12.82,12.82,0,0,1,112,97.65ZM16,4.59A10.61,10.61,0,0,0,8,8.33a13.72,13.72,0,0,0-3.38,9.15v65A13.71,13.71,0,0,0,8,91.67a10.61,10.61,0,0,0,8,3.74H112a10.61,10.61,0,0,0,8-3.74,13.71,13.71,0,0,0,3.38-9.15v-65A13.71,13.71,0,0,0,120,8.33a10.61,10.61,0,0,0-8-3.74Z"/><g id="BLACKBAMBU"><path class="cls-2" d="M35.12,53a2.14,2.14,0,0,1,1.65.74,2.66,2.66,0,0,1,.67,1.84V84a.9.9,0,0,1-.21.62.71.71,0,0,1-.56.24H35.12a.71.71,0,0,1-.56-.24.89.89,0,0,1-.21-.62V73.64a.9.9,0,0,0-.21-.62.72.72,0,0,0-.56-.24H28.94a2.13,2.13,0,0,1,1.65.74,2.66,2.66,0,0,1,.67,1.84V84a.9.9,0,0,1-.21.62.71.71,0,0,1-.56.24H28.94a.71.71,0,0,1-.56-.24.89.89,0,0,1-.21-.62V55.54a2.66,2.66,0,0,1,.67-1.84A2.13,2.13,0,0,1,30.48,53Zm-.77,4.31a.9.9,0,0,0-.21-.62.72.72,0,0,0-.56-.24H28.94a2.14,2.14,0,0,1,1.65.74A2.66,2.66,0,0,1,31.26,59v9.48a.89.89,0,0,0,.21.62.71.71,0,0,0,.56.24h1.55a.72.72,0,0,0,.56-.24.9.9,0,0,0,.21-.62Z"/><path class="cls-2" d="M40.3,53.82a.9.9,0,0,1,.21-.62.72.72,0,0,1,.56-.24h4.64a2.14,2.14,0,0,1,1.65.74A2.66,2.66,0,0,1,48,55.54a2.66,2.66,0,0,1,.67-1.84A2.13,2.13,0,0,1,50.35,53h3.09a2.14,2.14,0,0,1,1.65.74,2.66,2.66,0,0,1,.67,1.84V84a.9.9,0,0,1-.21.62.71.71,0,0,1-.56.24H53.45a.71.71,0,0,1-.56-.24.89.89,0,0,1-.21-.62V57.27a.9.9,0,0,0-.22-.62.72.72,0,0,0-.56-.24H47.26a2.13,2.13,0,0,1,1.65.74A2.66,2.66,0,0,1,49.58,59V84a.9.9,0,0,1-.22.62.71.71,0,0,1-.56.24H47.26a.71.71,0,0,1-.56-.24.89.89,0,0,1-.21-.62V57.27a.9.9,0,0,0-.21-.62.72.72,0,0,0-.56-.24H41.07a2.14,2.14,0,0,1,1.65.74A2.66,2.66,0,0,1,43.39,59V84a.9.9,0,0,1-.21.62.71.71,0,0,1-.56.24H41.07a.71.71,0,0,1-.56-.24A.89.89,0,0,1,40.3,84Z"/><path class="cls-2" d="M79.93,82.38A2.41,2.41,0,0,1,78,84.84H73a2.13,2.13,0,0,1-1.65-.74,2.65,2.65,0,0,1-.67-1.84V53.82a.9.9,0,0,1,.21-.62.72.72,0,0,1,.56-.24H73a.72.72,0,0,1,.56.24.9.9,0,0,1,.21.62v25a2.66,2.66,0,0,1-.67,1.84,2.13,2.13,0,0,1-1.65.74h4.64a.72.72,0,0,0,.56-.24.9.9,0,0,0,.21-.62V53.82a.9.9,0,0,1,.22-.62.72.72,0,0,1,.56-.24h1.55a.72.72,0,0,1,.56.24.9.9,0,0,1,.22.62V82.38Z"/><path class="cls-2" d="M31.52,41.2v5.17c0,.06,0,.13,0,.19Z"/><path class="cls-2" d="M32.19,48.22a2.61,2.61,0,0,1-.66-1.57V17.94a.82.82,0,0,0-.86-.86H28.95a.82.82,0,0,0-.86.86V48.1a.82.82,0,0,0,.86.86h4.57C32.86,49,32.63,48.71,32.19,48.22Zm-.67-1.84v.19C31.52,46.5,31.52,46.44,31.52,46.37Z"/><path class="cls-2" d="M41.51,17.09a2.14,2.14,0,0,1,1.65.74,2.66,2.66,0,0,1,.67,1.84V48.11a.9.9,0,0,1-.22.62.71.71,0,0,1-.56.24H41.51a.71.71,0,0,1-.56-.24.89.89,0,0,1-.21-.62V37.77a.9.9,0,0,0-.21-.62.72.72,0,0,0-.56-.24H35.32a2.13,2.13,0,0,1,1.65.74,2.66,2.66,0,0,1,.67,1.84v8.62a.9.9,0,0,1-.21.62.71.71,0,0,1-.56.24H35.32a.71.71,0,0,1-.56-.24.89.89,0,0,1-.21-.62V19.67a2.66,2.66,0,0,1,.67-1.84,2.13,2.13,0,0,1,1.65-.74Zm-.77,4.31a.9.9,0,0,0-.21-.62.72.72,0,0,0-.56-.24H35.32a2.14,2.14,0,0,1,1.65.74,2.66,2.66,0,0,1,.67,1.84V32.6a.89.89,0,0,0,.21.62.71.71,0,0,0,.56.24H40a.72.72,0,0,0,.56-.24.9.9,0,0,0,.21-.62Z"/><path class="cls-2" d="M48.93,49a2.13,2.13,0,0,1-1.65-.74,2.65,2.65,0,0,1-.67-1.84V19.67a2.66,2.66,0,0,1,.67-1.84,2.13,2.13,0,0,1,1.65-.74h4.64a2.13,2.13,0,0,1,1.65.74,2.66,2.66,0,0,1,.67,1.84v3.45a.9.9,0,0,1-.22.62.72.72,0,0,1-.56.24H53.57a.71.71,0,0,1-.56-.24.89.89,0,0,1-.22-.62V21.39a.9.9,0,0,0-.21-.62.72.72,0,0,0-.56-.24H47.7c.66,0,.89.25,1.34.74a2.66,2.66,0,0,1,.67,1.84V44.66a.89.89,0,0,0,.21.62.71.71,0,0,0,.56.24H52a.72.72,0,0,0,.56-.24.9.9,0,0,0,.21-.62V42.94a.89.89,0,0,1,.22-.62.71.71,0,0,1,.56-.24h1.55a.72.72,0,0,1,.56.24.9.9,0,0,1,.22.62v3.45a2.66,2.66,0,0,1-.67,1.84,2.13,2.13,0,0,1-1.65.74Z"/><path class="cls-2" d="M67.93,48.11a.9.9,0,0,1-.22.62.71.71,0,0,1-.56.24H65.61a.71.71,0,0,1-.56-.24.89.89,0,0,1-.22-.62V37.77a.9.9,0,0,0-.21-.62.72.72,0,0,0-.56-.24H59.42a2.13,2.13,0,0,1,1.65.74,2.66,2.66,0,0,1,.67,1.84v8.62a.9.9,0,0,1-.21.62A.71.71,0,0,1,61,49H59.42a.71.71,0,0,1-.56-.24.89.89,0,0,1-.21-.62V17.95a.9.9,0,0,1,.21-.62.72.72,0,0,1,.56-.24H61a.72.72,0,0,1,.56.24.9.9,0,0,1,.21.62V32.6a.89.89,0,0,0,.21.62.71.71,0,0,0,.56.24h1.55a.72.72,0,0,0,.56-.24.9.9,0,0,0,.21-.62V17.95a.9.9,0,0,1,.22-.62.71.71,0,0,1,.56-.24h1.55a.72.72,0,0,1,.56.24.9.9,0,0,1,.22.62V32.6a2.66,2.66,0,0,1-.67,1.84,2.13,2.13,0,0,1-1.65.74,2.13,2.13,0,0,1,1.65.74,2.66,2.66,0,0,1,.67,1.84Z"/><path class="cls-2" d="M67.9,68.47a2.66,2.66,0,0,1-.67,1.84,2.13,2.13,0,0,1-1.65.74,2.14,2.14,0,0,1,1.65.74,2.66,2.66,0,0,1,.67,1.84v8.62a2.66,2.66,0,0,1-.67,1.84,2.13,2.13,0,0,1-1.65.74H63a4.34,4.34,0,0,1-3.12-1.33h0a4.34,4.34,0,0,1-1.22-3v-25A2.49,2.49,0,0,1,61.11,53h4.47a2.14,2.14,0,0,1,1.65.74,2.66,2.66,0,0,1,.67,1.84ZM64.8,57.27a.9.9,0,0,0-.21-.62A.72.72,0,0,0,64,56.4H59.39a2.14,2.14,0,0,1,1.65.74A2.66,2.66,0,0,1,61.71,59v9.48a.89.89,0,0,0,.21.62.71.71,0,0,0,.56.24H64a.72.72,0,0,0,.56-.24.9.9,0,0,0,.21-.62Zm0,16.37a.9.9,0,0,0-.21-.62.72.72,0,0,0-.56-.24H59.39a2.13,2.13,0,0,1,1.65.74,2.66,2.66,0,0,1,.67,1.84v5.17a.89.89,0,0,0,.21.62.71.71,0,0,0,.56.24H64a.72.72,0,0,0,.56-.24.9.9,0,0,0,.21-.62Z"/><path class="cls-2" d="M25.41,32.6a2.66,2.66,0,0,1-.67,1.84,2.13,2.13,0,0,1-1.65.74,2.14,2.14,0,0,1,1.65.74,2.66,2.66,0,0,1,.67,1.84v8.62a2.66,2.66,0,0,1-.67,1.84,2.13,2.13,0,0,1-1.65.74H20.47a4.34,4.34,0,0,1-3.12-1.33h0a4.34,4.34,0,0,1-1.22-3v-25a2.49,2.49,0,0,1,2.5-2.54h4.47a2.14,2.14,0,0,1,1.65.74,2.66,2.66,0,0,1,.67,1.84Zm-3.09-11.2a.9.9,0,0,0-.21-.62.72.72,0,0,0-.56-.24H16.9a2.14,2.14,0,0,1,1.65.74,2.66,2.66,0,0,1,.67,1.84V32.6a.89.89,0,0,0,.21.62.71.71,0,0,0,.56.24h1.55a.72.72,0,0,0,.56-.24.9.9,0,0,0,.21-.62Zm0,16.37a.9.9,0,0,0-.21-.62.72.72,0,0,0-.56-.24H16.9a2.13,2.13,0,0,1,1.65.74,2.66,2.66,0,0,1,.67,1.84v5.17a.89.89,0,0,0,.21.62.71.71,0,0,0,.56.24h1.55a.72.72,0,0,0,.56-.24.9.9,0,0,0,.21-.62Z"/><path class="cls-2" d="M24.74,70.31a2.66,2.66,0,0,0,.66-1.84V55.54a2.65,2.65,0,0,0-.66-1.84A2.14,2.14,0,0,0,23.09,53H18.45a2.49,2.49,0,0,0-2.32,2.54v25a4.33,4.33,0,0,0,.32,1.62,4.33,4.33,0,0,0,4,2.71h2.62a2.14,2.14,0,0,0,1.66-.74,2.65,2.65,0,0,0,.66-1.84V73.64a2.65,2.65,0,0,0-.66-1.84,2.14,2.14,0,0,0-1.66-.74A2.14,2.14,0,0,0,24.74,70.31ZM22.31,80.53a.91.91,0,0,1-.21.62.72.72,0,0,1-.56.24H20a.72.72,0,0,1-.56-.24.9.9,0,0,1-.22-.62V75.36a2.65,2.65,0,0,0-.66-1.84,2.14,2.14,0,0,0-1.66-.74h4.64a.72.72,0,0,1,.56.24.91.91,0,0,1,.21.62ZM22.1,69.09a.72.72,0,0,1-.56.24H20a.72.72,0,0,1-.56-.24.9.9,0,0,1-.22-.62V59a2.65,2.65,0,0,0-.66-1.84,2.14,2.14,0,0,0-1.66-.74h4.64a.72.72,0,0,1,.56.24.91.91,0,0,1,.21.62v11.2a1,1,0,0,1-.08.42A.84.84,0,0,1,22.1,69.09Z"/></g></svg>