<svg id="Layer_1" data-name="Layer 1" xmlns="http://www.w3.org/2000/svg" viewBox="0 0 254.77 380.19"><defs><style>.cls-1{fill:#090f61;}</style></defs><title>Blubeta_Logotype_BlueonWhite</title><polygon class="cls-1" points="192.49 5.65 201.47 5.65 201.47 33.24 207.68 33.24 207.68 5.65 216.87 5.65 216.87 0 192.49 0 192.49 5.65"/><polygon class="cls-1" points="245.73 0 239.37 24.67 232.87 0 223.84 0 223.84 33.24 229.91 33.24 229.3 5.93 236.5 33.24 242.11 33.24 249.26 5.93 248.7 33.24 254.76 33.24 254.76 0 245.73 0"/><rect class="cls-1" y="346.95" width="201.41" height="33.24"/><path class="cls-1" d="M310.43,176.44c-27,0-47.77,9.29-68.14,30.1V115.9H201.58v280h40.71V376.23c18.41,18.41,39.38,25.45,66.81,25.45,57.09,0,93.38-43.82,93.38-113.75C402.48,220.7,365.74,176.44,310.43,176.44Zm-9.24,191.23c-33.28,0-60.25-35.17-60.25-78.56s27-78.55,60.25-78.55,60.25,35.17,60.25,78.55S334.46,367.67,301.19,367.67Z" transform="translate(-201.07 -115.9)"/></svg>