<?xml version="1.0" encoding="utf-8"?>
<!-- Generator: Adobe Illustrator 18.1.1, SVG Export Plug-In . SVG Version: 6.00 Build 0)  -->
<svg version="1.1" id="Layer_1" xmlns="http://www.w3.org/2000/svg" xmlns:xlink="http://www.w3.org/1999/xlink" x="0px" y="0px"
	 viewBox="0 0 115.3 123.4" enable-background="new 0 0 115.3 123.4" xml:space="preserve">
<pattern  x="-1591.7" y="-70.6" width="9" height="9" patternUnits="userSpaceOnUse" id="pattern_x5F_background_copy" viewBox="0 -9 9 9" overflow="visible">
	<g>
		<polygon fill="none" points="0,-9 9,-9 9,0 0,0 		"/>
		<polygon fill="#006DB6" points="9,0 0,0 0,-9 9,-9 		"/>
		<polygon fill="#0672B9" points="5.5,-3.5 3.5,-3.5 3.5,-5.5 5.5,-5.5 		"/>
	</g>
</pattern>
<rect x="-1591.7" y="297.9" display="none" fill="url(#pattern_x5F_background_copy)" width="1366" height="399.5"/>
<g display="none">
	<g display="inline">
		<g>
			<g>
				<g>
					<g>
						<path fill="#FFFFFF" d="M-325.7,663.5c-0.2-5.6-4.9-10-10.5-10h0h0c-5.8,0-10.5,4.7-10.5,10.5c0,5.6,4.4,10.2,10,10.5
							c0.2,0,0.3,0,0.5,0h1.6h0.2l0-0.2c0-0.1,0-0.3,0-0.5c0-0.6,0.1-1.1,0.2-1.7c0.7-3.1,3.1-5.5,6.2-6.2c0.5-0.1,1.1-0.2,1.7-0.2
							c0.2,0,0.3,0,0.5,0l0.2,0v-0.2v-1.5C-325.7,663.8-325.7,663.6-325.7,663.5z M-328.2,663.4c-4.3,0.7-7.8,4.2-8.6,8.6
							c-4.2-0.3-7.5-3.8-7.5-8c0-4.4,3.6-8,8.1-8C-332,655.9-328.5,659.2-328.2,663.4z"/>
						<g>
							<circle fill="#FFFFFF" cx="-338.5" cy="661.1" r="1.3"/>
							<circle fill="#FFFFFF" cx="-334" cy="661.1" r="1.3"/>
						</g>
					</g>
				</g>
			</g>
			<path fill="#6EC829" d="M-323.5,668.5c-0.4-0.3-1.4-0.7-2.3-0.8c-3.3-0.4-6.6,1.9-6.8,5.7c0,0.4,0,1,0,1l0,0c0,0-0.6,3-0.6,3.9
				c0.2-0.8,0.6-1.9,1-2.8c0-0.1,0.2-0.4,0.2-0.4c0.2-0.5,0.3-0.8,0.4-0.9c1.5-3.2,3.9-4.9,5-5.1c-3,1.5-4.5,5.2-4,5.2
				c3.6,0,4.6-1.8,4.9-3.5c0.2-0.8,0.3-1,0.9-1.6C-324.2,668.7-323.5,668.7-323.5,668.5"/>
		</g>
	</g>
	<g display="inline">
		<path fill="#FFFFFF" d="M-319.2,663.4h-1.2V654h1.2v4.2c0.4-0.7,1.3-1,2.1-1c1.7,0,3.1,1.2,3.1,3.2c0,1.9-1.4,3.2-3.1,3.2
			c-0.9,0-1.7-0.4-2.1-1.1V663.4z M-317.2,662.4c1.1,0,2-0.8,2-2c0-1.2-0.9-2-2-2c-1,0-2,0.7-2,2
			C-319.2,661.6-318.3,662.4-317.2,662.4z"/>
		<path fill="#FFFFFF" d="M-311.2,654v9.4h-1.2V654H-311.2z"/>
		<path fill="#FFFFFF" d="M-305.1,657.3h1.2v6.1h-1.2v-0.9c-0.4,0.7-1.2,1-1.9,1c-1.5,0-2.4-1-2.4-2.7v-3.5h1.2v3.5
			c0,1,0.5,1.6,1.3,1.6c0.9,0,1.7-0.5,1.7-1.8V657.3z"/>
		<path fill="#FFFFFF" d="M-300.7,663.4h-1.2V654h1.2v4.2c0.4-0.7,1.3-1,2.1-1c1.7,0,3.1,1.2,3.1,3.2c0,1.9-1.4,3.2-3.1,3.2
			c-0.9,0-1.7-0.4-2.1-1.1V663.4z M-298.6,662.4c1.1,0,2-0.8,2-2c0-1.2-0.9-2-2-2c-1,0-2,0.7-2,2
			C-300.7,661.6-299.7,662.4-298.6,662.4z"/>
		<path fill="#FFFFFF" d="M-288.1,660.8h-5c0.1,1,0.9,1.7,2,1.7c0.7,0,1.4-0.3,1.8-0.9c0.3,0.1,0.7,0.3,1,0.4
			c-0.5,1.1-1.6,1.6-2.8,1.6c-1.7,0-3.1-1.3-3.1-3.2s1.4-3.2,3.1-3.2c1.7,0,3,1.2,3,3.2C-288.1,660.5-288.1,660.7-288.1,660.8z
			 M-289.3,659.9c-0.1-1-0.9-1.6-1.9-1.6c-1,0-1.8,0.6-1.9,1.6H-289.3z"/>
		<path fill="#FFFFFF" d="M-283.6,657.3v1h-1.3v5.1h-1.2v-5.1h-1.1v-1h1.1V655h1.2v2.3H-283.6z"/>
		<path fill="#FFFFFF" d="M-277.5,662.5c-0.4,0.7-1.3,1.1-2.1,1.1c-1.7,0-3.1-1.3-3.1-3.2c0-1.9,1.4-3.2,3.1-3.2
			c0.9,0,1.7,0.4,2.1,1v-0.9h1.2v6.1h-1.2V662.5z M-279.6,658.3c-1.1,0-2,0.8-2,2c0,1.2,0.9,2,2,2c1.1,0,2-0.7,2-2
			C-277.6,659-278.6,658.3-279.6,658.3z"/>
		<path fill="#FFFFFF" d="M-273.6,661.9c0.5,0,0.9,0.4,0.9,0.8c0,0.5-0.4,0.8-0.9,0.8c-0.5,0-0.9-0.3-0.9-0.8
			C-274.5,662.3-274.1,661.9-273.6,661.9z"/>
		<path fill="#FFFFFF" d="M-268.1,657.2c0.9,0,1.8,0.4,2.4,1l-0.9,0.8c-0.4-0.4-0.9-0.6-1.5-0.6c-1.1,0-2.1,0.8-2.1,2
			c0,1.2,1,2.1,2.1,2.1c0.6,0,1.1-0.2,1.5-0.6l0.9,0.8c-0.6,0.6-1.4,1-2.4,1c-1.7,0-3.2-1.3-3.2-3.2S-269.8,657.2-268.1,657.2z"/>
		<path fill="#FFFFFF" d="M-264.8,660.3c0-1.9,1.5-3.2,3.2-3.2c1.7,0,3.2,1.2,3.2,3.2s-1.5,3.2-3.2,3.2
			C-263.3,663.5-264.8,662.3-264.8,660.3z M-259.6,660.3c0-1.2-0.9-2-2-2c-1.1,0-2,0.8-2,2c0,1.2,0.9,2.1,2,2.1
			C-260.5,662.4-259.6,661.6-259.6,660.3z"/>
		<path fill="#FFFFFF" d="M-251.4,660.1v3.3c-0.2,0-1,0-1.2,0v-3.5c0-1-0.5-1.6-1.3-1.6c-0.9,0-1.7,0.5-1.7,1.8v3.3h-1.2v-6.1h1.2
			v0.9c0.3-0.7,1.2-1,1.7-1c0.2,0,0.5,0,0.7,0c0.8,0.1,1.3,0.5,1.6,1.2c0.6-1.1,1.5-1.3,2.1-1.3c1.5,0,2.4,1,2.4,2.7v3.5h-1.2V660
			c0-1-0.5-1.6-1.4-1.6C-250.8,658.3-251.4,659.1-251.4,660.1z"/>
	</g>
</g>
<text transform="matrix(1 0 0 1 -321.2968 673.9301)" display="none" fill="#6EC829" font-family="'Ubuntu-Light'" font-size="7.9992">Business Engineering</text>
<g display="none">
	<g display="inline">
		<g>
			<g>
				<g>
					<path fill="#006DB6" d="M-862.2,40.9c-1.2-27.8-24.1-49.6-52-49.6h0h0c-28.7,0-52.1,23.3-52.1,51.9c0,27.9,21.9,50.7,49.8,51.9
						c0.8,0,1.5,0.1,2.3,0.1h7.7h1.2l-0.1-1.2c0-0.7-0.1-1.5-0.1-2.2c0-2.8,0.3-5.6,0.9-8.3c3.3-15.4,15.3-27.4,30.7-30.6
						c2.7-0.6,5.5-0.9,8.3-0.9c0.8,0,1.5,0,2.3,0.1l1.2,0.1v-1.2v-7.7C-862.1,42.4-862.1,41.6-862.2,40.9z M-874.4,40.5
						c-21.5,3.7-38.8,20.9-42.5,42.4c-21-1.4-37.2-18.6-37.2-39.7c0-22,17.9-39.8,39.9-39.8C-893.1,3.4-875.8,19.6-874.4,40.5z"/>
					<g>
						<circle fill="#006DB6" cx="-925.5" cy="29.4" r="6.2"/>
						<circle fill="#006DB6" cx="-902.9" cy="29.4" r="6.2"/>
					</g>
				</g>
			</g>
		</g>
		<path fill="#6EC829" d="M-851,65.7c-2.1-1.3-6.8-3.3-11.2-3.8c-16.2-1.8-32.5,9.3-33.8,28.2c-0.1,1.8,0.1,5,0.1,5l0,0
			c0,0-3.1,14.9-3.2,19.5c1-3.9,3.1-9.4,4.9-13.8c0.2-0.4,0.8-2,0.8-2.1c0.9-2.2,1.7-4,1.9-4.6C-884,78.3-872,70-866.6,68.9
			c-14.7,7.3-22.3,25.9-19.8,25.9c17.6,0,22.6-8.9,24.3-17.4c0.8-3.9,1.4-5,4.5-7.8C-854.5,66.9-851.3,67-851,65.7"/>
	</g>
</g>
<text transform="matrix(1 0 0 1 -1019.7411 270.7137)" display="none" fill="#006DB6" font-family="'SofiaProBold'" font-size="38">REDRAWING</text>
<text transform="matrix(1 0 0 1 -1027.3976 360.7137)" display="none" fill="#FFFFFF" font-family="'SofiaProBold'" font-size="38">BOUNDARIES</text>
<text transform="matrix(1 0 0 1 -1070.0134 678.3502)" display="none" fill="#FFFFFF" font-family="'SofiaProRegular'" font-size="12">2015 (c) All Rights Reserved.  Blubeta logo is trademarked. </text>
<text transform="matrix(1 0 0 1 -1101.9681 531.824)" display="none"><tspan x="0" y="0" display="inline" fill="#6EC829" font-family="'SofiaProRegular'" font-size="24">Linking </tspan><tspan x="83.5" y="0" display="inline" fill="#FFFFFF" font-family="'SofiaProRegular'" font-size="24">businesses</tspan><tspan x="199.8" y="0" display="inline" fill="#6EC829" font-family="'SofiaProRegular'" font-size="24"> </tspan><tspan x="205.9" y="0" display="inline" fill="#6EC829" font-family="'SofiaProRegular'" font-size="24">with </tspan><tspan x="258.7" y="0" display="inline" fill="#FFFFFF" font-family="'SofiaProRegular'" font-size="24">technology</tspan><tspan x="380.2" y="0" display="inline" fill="#6EC829" font-family="'SofiaProRegular'" font-size="24">.</tspan></text>
<g display="none">
	<linearGradient id="SVGID_1_" gradientUnits="userSpaceOnUse" x1="-1495.4877" y1="-27.4391" x2="-1544.2758" y2="-16.3876">
		<stop  offset="0" style="stop-color:#FFFFFF"/>
		<stop  offset="1" style="stop-color:#000000"/>
	</linearGradient>
	<path display="inline" fill="url(#SVGID_1_)" d="M-1539.2,22.7c1.7-0.6,25.4-5.6,46.5-45.2c17-31.9-47.7-37.1-66-30.7l52.2,11.6
		l2.9,22.7L-1539.2,22.7z"/>
	<g display="inline">
		<g id="XMLID_2_">
			<g>
				<path fill="#9B3108" d="M-1503.4-45.3c0.3,2.1,0.4,4.2,0.4,6.3c0,13.7-5.5,26.9-15.2,36.6c-9.7,9.7-22.9,15.2-36.6,15.2
					c-5.1,0-10.1-0.8-14.9-2.2c6.5,8.6,16.3,12.6,27.1,12.6c18.8,0,45.4-36.1,45.4-54.9C-1497.2-37.3-1499.6-41.8-1503.4-45.3z"/>
			</g>
		</g>
	</g>
	<g display="inline">
		<g id="XMLID_1_">
			<g>
				<path fill="#EF5C1B" d="M-1543.6-25.5l-11.2,8.6l11.2,14.6l11.3-8.7l-2.3-2.9l-7.9,6l-2.4-3.1l6.9-5.3l-2.2-2.9l-6.9,5.3
					l-2.1-2.8l7.7-5.9L-1543.6-25.5z M-1542.5-26.3l15.3,11.6l3.9-3l-4.5-12.3l10.7,7.6l3.9-3l-7.3-17.7l-3.7,2.8l5.1,11.7
					l-10.4-7.6l-3.9,3l4.6,12.1l-9.9-8L-1542.5-26.3z M-1497.5-32c0,18.8-26.6,54.9-45.4,54.9c-18.8,0-34.8-12.3-34.8-39.6
					c0-18.8,6.3-39.9,35.2-39.9C-1523.8-56.7-1497.5-50.8-1497.5-32z M-1546-0.5l-11.2-14.6l-3.4,2.6l6.3,8.2l0.6,0.8l-12.5-4.7
					l-3.9,3l11.2,14.6l3.3-2.6l-6.4-8.4l-0.6-0.8l12.8,4.8L-1546-0.5z"/>
			</g>
		</g>
	</g>
</g>
<g display="none">
</g>
<g>
	<g>
		<g>
			<g>
				<g>
					<path fill="#006DB6" d="M104.2,49.6C102.9,21.8,80.1,0,52.1,0h0h0C23.4,0,0,23.3,0,51.9c0,27.9,21.9,50.7,49.8,51.9
						c0.8,0,1.5,0.1,2.3,0.1h7.7H61l-0.1-1.2c0-0.7-0.1-1.5-0.1-2.2c0-2.8,0.3-5.6,0.9-8.3C65,76.8,77.1,64.8,92.5,61.5
						c2.7-0.6,5.5-0.9,8.3-0.9c0.8,0,1.5,0,2.3,0.1l1.2,0.1v-1.2v-7.7C104.2,51.1,104.2,50.4,104.2,49.6z M91.9,49.3
						c-21.5,3.7-38.8,20.9-42.5,42.4c-21-1.4-37.2-18.6-37.2-39.7c0-22,17.9-39.8,39.9-39.8C73.2,12.1,90.6,28.4,91.9,49.3z"/>
					<g>
						<circle fill="#006DB6" cx="40.8" cy="38.1" r="6.2"/>
						<circle fill="#006DB6" cx="63.4" cy="38.1" r="6.2"/>
					</g>
				</g>
			</g>
		</g>
		<path fill="#6EC829" d="M115.3,74.5c-2.1-1.3-6.8-3.3-11.2-3.8c-16.2-1.8-32.5,9.3-33.8,28.2c-0.1,1.8,0.1,5,0.1,5l0,0
			c0,0-3.1,14.9-3.2,19.5c1-3.9,3.1-9.4,4.9-13.8c0.2-0.4,0.8-2,0.8-2.1c0.9-2.2,1.7-4,1.9-4.6c7.4-15.8,19.4-24.2,24.8-25.3
			c-14.7,7.3-22.3,25.9-19.8,25.9c17.6,0,22.6-8.9,24.3-17.4c0.8-3.9,1.4-5,4.5-7.8C111.8,75.6,115.1,75.7,115.3,74.5"/>
	</g>
</g>
<rect x="-4.9" y="-8.7" display="none" fill="none" width="124.4" height="137.3"/>
</svg>
