<?xml version="1.0" encoding="UTF-8" standalone="no"?>
<svg width="71px" height="62px" viewBox="0 0 71 62" version="1.1" xmlns="http://www.w3.org/2000/svg" xmlns:xlink="http://www.w3.org/1999/xlink" xmlns:sketch="http://www.bohemiancoding.com/sketch/ns">
    <!-- Generator: Sketch 3.3.2 (12043) - http://www.bohemiancoding.com/sketch -->
    <title>icon-react</title>
    <desc>Created with Sketch.</desc>
    <defs></defs>
    <g id="Mobile" stroke="none" stroke-width="1" fill="none" fill-rule="evenodd" sketch:type="MSPage">
        <g id="eFounders-•-Hackers" sketch:type="MSArtboardGroup" transform="translate(-954.000000, -1305.000000)">
            <g id="Our-love-for-tech" sketch:type="MSLayerGroup" transform="translate(270.000000, 1186.000000)">
                <g id="Logos" transform="translate(634.000000, 40.000000)" sketch:type="MSShapeGroup">
                    <g id="icon-react" transform="translate(52.000000, 80.000000)">
                        <circle id="Oval" fill="#00D8FF" cx="33.691125" cy="29.9535" r="6.270875"></circle>
                        <path d="M33.691125,17.2035 C42.110625,17.2035 49.932125,18.411625 55.8295,20.441875 C62.935,22.888 67.30375,26.596 67.30375,29.9535 C67.30375,33.452375 62.673625,37.391375 55.043375,39.9195 C49.2745,41.830875 41.6835,42.8285 33.691125,42.8285 C25.496875,42.8285 17.737375,41.892 11.904875,39.898375 C4.524125,37.375625 0.0785,33.3855 0.0785,29.9535 C0.0785,26.62325 4.24975,22.944 11.255375,20.5015 C17.17475,18.437875 25.189375,17.2035 33.691125,17.2035 L33.691125,17.2035 Z" id="Shape" stroke="#00D8FF" stroke-width="2.4"></path>
                        <path d="M22.592,23.61525 C26.798125,16.32175 31.752125,10.14975 36.457,6.05525 C42.12575,1.122 47.520375,-0.810125 50.428875,0.867125 C53.459875,2.615 54.559125,8.593875 52.93725,16.466625 C51.711,22.418875 48.783,29.493125 44.79025,36.41675 C40.696625,43.51525 36.009,49.769125 31.368125,53.82575 C25.4955,58.95925 19.818125,60.816875 16.845,59.102375 C13.960125,57.438625 12.85675,51.98725 14.24075,44.69825 C15.410125,38.5395 18.34475,30.980125 22.592,23.61525 L22.592,23.61525 Z" id="Shape" stroke="#00D8FF" stroke-width="2.4"></path>
                        <path d="M22.602625,36.43525 C18.384375,29.14875 15.51125,21.774375 14.313625,15.653375 C12.870625,8.2785 13.890875,2.63975 16.796625,0.957625 C19.824625,-0.795375 25.5535,1.238125 31.564125,6.575125 C36.108625,10.610125 40.775125,16.67975 44.7795,23.59675 C48.885,30.688375 51.962125,37.872875 53.159,43.9195 C54.673625,51.571125 53.447625,57.4175 50.477375,59.137 C47.59525,60.8055 42.32125,59.039 36.6975,54.199625 C31.945875,50.11075 26.86225,43.793 22.602625,36.43525 L22.602625,36.43525 Z" id="Shape" stroke="#00D8FF" stroke-width="2.4"></path>
                    </g>
                </g>
            </g>
        </g>
    </g>
</svg>